<?xml version="1.0" encoding="UTF-8" standalone="no"?>
<!-- Created with Inkscape (http://www.inkscape.org/) -->

<svg
   xmlns:dc="http://purl.org/dc/elements/1.1/"
   xmlns:cc="http://creativecommons.org/ns#"
   xmlns:rdf="http://www.w3.org/1999/02/22-rdf-syntax-ns#"
   xmlns:svg="http://www.w3.org/2000/svg"
   xmlns="http://www.w3.org/2000/svg"
   xmlns:sodipodi="http://sodipodi.sourceforge.net/DTD/sodipodi-0.dtd"
   xmlns:inkscape="http://www.inkscape.org/namespaces/inkscape"
   width="128"
   height="128"
   viewBox="0 0 33.866666 33.866668"
   version="1.1"
   id="svg8"
   inkscape:version="0.92.4 (5da689c313, 2019-01-14)"
   sodipodi:docname="20. Dosis health, medicine, medication, drug, doctor, vitamin.svg">
  <defs
     id="defs2">
    <pattern
       y="0"
       x="0"
       height="6"
       width="6"
       patternUnits="userSpaceOnUse"
       id="EMFhbasepattern" />
    <pattern
       y="0"
       x="0"
       height="6"
       width="6"
       patternUnits="userSpaceOnUse"
       id="EMFhbasepattern-5" />
    <pattern
       y="0"
       x="0"
       height="6"
       width="6"
       patternUnits="userSpaceOnUse"
       id="EMFhbasepattern-2" />
    <pattern
       y="0"
       x="0"
       height="6"
       width="6"
       patternUnits="userSpaceOnUse"
       id="EMFhbasepattern-52" />
    <pattern
       y="0"
       x="0"
       height="6"
       width="6"
       patternUnits="userSpaceOnUse"
       id="EMFhbasepattern-9" />
    <pattern
       y="0"
       x="0"
       height="6"
       width="6"
       patternUnits="userSpaceOnUse"
       id="EMFhbasepattern-1" />
  </defs>
  <sodipodi:namedview
     id="base"
     pagecolor="#ffffff"
     bordercolor="#666666"
     borderopacity="1.0"
     inkscape:pageopacity="0.0"
     inkscape:pageshadow="2"
     inkscape:zoom="2.3616262"
     inkscape:cx="-53.732454"
     inkscape:cy="41.096503"
     inkscape:document-units="px"
     inkscape:current-layer="layer1"
     showgrid="false"
     units="px"
     inkscape:window-width="1366"
     inkscape:window-height="706"
     inkscape:window-x="-8"
     inkscape:window-y="-8"
     inkscape:window-maximized="1"
     showguides="true">
    <inkscape:grid
       type="xygrid"
       id="grid815"
       empspacing="1"
       originx="0"
       originy="0"
       spacingx="0"
       spacingy="0"
       snapvisiblegridlinesonly="true"
       visible="true"
       enabled="true"
       dotted="false" />
  </sodipodi:namedview>
  <metadata
     id="metadata5">
    <rdf:RDF>
      <cc:Work
         rdf:about="">
        <dc:format>image/svg+xml</dc:format>
        <dc:type
           rdf:resource="http://purl.org/dc/dcmitype/StillImage" />
        <dc:title />
      </cc:Work>
    </rdf:RDF>
  </metadata>
  <g
     inkscape:label="Layer 1"
     inkscape:groupmode="layer"
     id="layer1"
     transform="translate(0,-263.13332)">
    <path
       style="color:#000000;font-style:normal;font-variant:normal;font-weight:normal;font-stretch:normal;font-size:medium;line-height:normal;font-family:sans-serif;font-variant-ligatures:normal;font-variant-position:normal;font-variant-caps:normal;font-variant-numeric:normal;font-variant-alternates:normal;font-feature-settings:normal;text-indent:0;text-align:start;text-decoration:none;text-decoration-line:none;text-decoration-style:solid;text-decoration-color:#000000;letter-spacing:normal;word-spacing:normal;text-transform:none;writing-mode:lr-tb;direction:ltr;text-orientation:mixed;dominant-baseline:auto;baseline-shift:baseline;text-anchor:start;white-space:normal;shape-padding:0;clip-rule:nonzero;display:inline;overflow:visible;visibility:visible;opacity:1;isolation:auto;mix-blend-mode:normal;color-interpolation:sRGB;color-interpolation-filters:linearRGB;solid-color:#000000;solid-opacity:1;vector-effect:none;fill:#8a2be2;fill-opacity:1;fill-rule:nonzero;stroke:none;stroke-width:0.5291667;stroke-linecap:round;stroke-linejoin:miter;stroke-miterlimit:4;stroke-dasharray:none;stroke-dashoffset:0;stroke-opacity:1;color-rendering:auto;image-rendering:auto;shape-rendering:auto;text-rendering:auto;enable-background:accumulate"
       d="m 14.822168,263.66665 c -1.39386,-0.0541 -2.779952,0.41897 -3.839114,1.44124 l -0.0021,0.004 -0.06462,0.0625 -0.0057,0.047 c -1.9539097,2.06395 -1.7948697,5.47126 0.347412,7.61287 l 6.334072,6.33288 -10e-4,10e-4 6.633922,6.58969 c 2.164544,2.1623 5.580307,2.31526 7.622393,0.27543 l 0.0016,-0.002 0.07651,-0.076 v -0.0393 c 2.002006,-2.05277 1.846031,-5.4394 -0.283306,-7.56636 h -0.0021 l -6.389384,-6.37836 -6.546034,-6.58193 c -1.086958,-1.08664 -2.48868,-1.66881 -3.88254,-1.72288 z m -0.01137,0.52503 v 5.1e-4 c 1.258567,0.0499 2.525722,0.57889 3.519101,1.57198 l 6.179494,6.21246 -6.550687,6.80932 -6.326835,-6.32666 c -1.9846922,-1.98408 -2.1078623,-5.14296 -0.277619,-6.97261 l 0.0021,-0.002 c 0.951165,-0.91518 2.19824,-1.34277 3.454482,-1.29293 z m 10.073408,8.16116 6.382668,6.37007 c 1.975237,1.97303 2.099673,5.11226 0.21093,6.93385 l -0.0036,0.002 -0.0021,0.002 c -1.823895,1.81957 -4.89565,1.69756 -6.872251,-0.27698 l -6.265822,-6.22472 z m 6.804526,15.69032 c -0.397438,-6.1e-4 -0.812286,0.19041 -1.176136,0.57618 l 0.0062,-0.008 c -1.394941,1.37889 -3.083243,2.34983 -4.923744,2.96877 -0.203168,-0.0514 -0.424569,-0.0963 -0.670527,-0.13281 l -0.0078,-0.002 h -0.0062 c -1.489959,-0.14524 -2.857633,-0.51062 -4.153943,-1.03811 -1.647141,-0.869 -3.319068,-1.0614 -4.980611,-1.00872 -1.571387,0.0499 -3.133509,0.31709 -4.658014,0.43666 v -1.30171 H 0.52914781 v 0.52916 H 10.58808 v 0.98649 a 0.26472163,0.26460654 0 0 0 0,0.14521 v 0.19224 3.88498 1.67016 H 0.52914781 v 0.52916 H 11.117987 v -1.98745 c 1.689349,0.67827 2.965745,1.23343 5.507933,1.7177 l 0.0078,0.002 h 0.0078 c 4.926709,0.64568 8.343048,0.0437 10.834924,-1.06658 2.491874,-1.11031 4.050354,-2.72425 5.275292,-4.04467 l 0.01758,-0.0196 0.01601,-0.0233 c 0.421328,-0.70213 0.451014,-1.44236 0.224368,-2.01381 -0.226642,-0.57145 -0.72488,-0.99127 -1.320889,-0.99217 z m -0.0016,0.52916 c 0.347508,5.3e-4 0.666834,0.24626 0.830275,0.65835 0.162194,0.40894 0.150101,0.96549 -0.185596,1.53322 -1.213847,1.30742 -2.697643,2.83193 -5.072634,3.89015 -2.391063,1.06538 -5.692409,1.6594 -10.539727,1.02577 -2.60124,-0.49621 -3.79237,-1.05976 -5.601507,-1.78127 v -3.53255 c 3.220082,-0.24415 6.385663,-1.08628 9.408051,0.51727 l 0.01189,0.008 0.01137,0.004 c 1.340321,0.54619 2.763549,0.92503 4.310601,1.07589 h -0.01396 c 0.313844,0.0465 0.572788,0.11006 0.799772,0.17931 0.08236,0.0255 0.165984,0.0508 0.236778,0.0786 0.01542,0.006 0.02802,0.0121 0.04291,0.0181 0.305017,0.1253 0.500033,0.26565 0.589362,0.38188 0.04137,0.0538 0.06346,0.0984 0.07651,0.14108 0.01308,0.054 0.0097,0.10524 -0.01551,0.16639 -0.01263,0.0259 -0.03056,0.0546 -0.0517,0.0848 -0.0054,0.008 -0.0098,0.0152 -0.01604,0.0232 -0.02802,0.0374 -0.06587,0.0756 -0.111667,0.11473 -0.0042,0.004 -0.0081,0.008 -0.01241,0.0114 -0.367432,0.30338 -1.257006,0.63268 -2.553894,0.65008 -1.731578,-0.0643 -2.406157,-0.50885 -3.372278,-0.78133 l -0.07647,-0.0217 -0.07393,0.0233 c -2.169476,0.6628 -3.522403,0.55048 -5.131053,0.002 l -0.001,0.003 a 0.26508241,0.26496716 0 1 0 -0.169054,0.50177 c 1.647822,0.56181 3.168823,0.66633 5.351805,0.0196 0.862324,0.25134 1.662242,0.72192 3.458614,0.78702 h 0.0057 0.0078 c 0.123668,-0.002 0.23725,-0.0104 0.35465,-0.0165 0.07858,-0.004 0.160506,-0.005 0.236261,-0.0109 0.0466,-0.004 0.08942,-0.01 0.134932,-0.0145 0.922702,-0.0842 1.62744,-0.30528 2.07,-0.64388 0.194723,-0.14263 0.340792,-0.30721 0.428059,-0.49816 0.08477,-0.18545 0.1009,-0.39977 0.03516,-0.5953 -0.06575,-0.19553 -0.203924,-0.36579 -0.390322,-0.51004 -0.108975,-0.0843 -0.238077,-0.16072 -0.383085,-0.23099 1.687887,-0.64248 3.262942,-1.54903 4.574263,-2.84527 l 0.0036,-0.004 0.0041,-0.004 c 0.288303,-0.30566 0.557856,-0.40858 0.789432,-0.40823 z"
       id="path818"
       inkscape:connector-curvature="0" />
  </g>
</svg>
