<?xml version="1.0" encoding="UTF-8" standalone="no"?>
<!-- Created with Inkscape (http://www.inkscape.org/) -->

<svg
   xmlns:dc="http://purl.org/dc/elements/1.1/"
   xmlns:cc="http://creativecommons.org/ns#"
   xmlns:rdf="http://www.w3.org/1999/02/22-rdf-syntax-ns#"
   xmlns:svg="http://www.w3.org/2000/svg"
   xmlns="http://www.w3.org/2000/svg"
   xmlns:sodipodi="http://sodipodi.sourceforge.net/DTD/sodipodi-0.dtd"
   xmlns:inkscape="http://www.inkscape.org/namespaces/inkscape"
   width="128"
   height="128"
   viewBox="0 0 33.866666 33.866668"
   version="1.1"
   id="svg8"
   inkscape:version="0.92.4 5da689c313, 2019-01-14"
   sodipodi:docname="20. Dosis health, medicine, medication, drug, doctor, vitamin.svg">
  <defs
     id="defs2">
    <pattern
       y="0"
       x="0"
       height="6"
       width="6"
       patternUnits="userSpaceOnUse"
       id="EMFhbasepattern" />
    <pattern
       y="0"
       x="0"
       height="6"
       width="6"
       patternUnits="userSpaceOnUse"
       id="EMFhbasepattern-5" />
    <pattern
       y="0"
       x="0"
       height="6"
       width="6"
       patternUnits="userSpaceOnUse"
       id="EMFhbasepattern-2" />
    <pattern
       y="0"
       x="0"
       height="6"
       width="6"
       patternUnits="userSpaceOnUse"
       id="EMFhbasepattern-52" />
    <pattern
       y="0"
       x="0"
       height="6"
       width="6"
       patternUnits="userSpaceOnUse"
       id="EMFhbasepattern-9" />
    <pattern
       y="0"
       x="0"
       height="6"
       width="6"
       patternUnits="userSpaceOnUse"
       id="EMFhbasepattern-1" />
  </defs>
  <sodipodi:namedview
     id="base"
     pagecolor="#ffffff"
     bordercolor="#666666"
     borderopacity="1.0"
     inkscape:pageopacity="0.0"
     inkscape:pageshadow="2"
     inkscape:zoom="3.3398438"
     inkscape:cx="40.660616"
     inkscape:cy="66.838354"
     inkscape:document-units="px"
     inkscape:current-layer="layer1"
     showgrid="false"
     units="px"
     inkscape:window-width="1366"
     inkscape:window-height="700"
     inkscape:window-x="0"
     inkscape:window-y="0"
     inkscape:window-maximized="1"
     showguides="true">
    <inkscape:grid
       type="xygrid"
       id="grid815"
       empspacing="1"
       originx="0"
       originy="0"
       spacingx="0"
       spacingy="0"
       snapvisiblegridlinesonly="true"
       visible="true"
       enabled="true"
       dotted="false" />
  </sodipodi:namedview>
  <metadata
     id="metadata5">
    <rdf:RDF>
      <cc:Work
         rdf:about="">
        <dc:format>image/svg+xml</dc:format>
        <dc:type
           rdf:resource="http://purl.org/dc/dcmitype/StillImage" />
        <dc:title />
      </cc:Work>
    </rdf:RDF>
  </metadata>
  <g
     inkscape:label="Layer 1"
     inkscape:groupmode="layer"
     id="layer1"
     transform="translate(0,-263.13332)">
    <path
       style="color:#000000;font-style:normal;font-variant:normal;font-weight:normal;font-stretch:normal;font-size:medium;line-height:normal;font-family:sans-serif;font-variant-ligatures:normal;font-variant-position:normal;font-variant-caps:normal;font-variant-numeric:normal;font-variant-alternates:normal;font-feature-settings:normal;text-indent:0;text-align:start;text-decoration:none;text-decoration-line:none;text-decoration-style:solid;text-decoration-color:#000000;letter-spacing:normal;word-spacing:normal;text-transform:none;writing-mode:lr-tb;direction:ltr;text-orientation:mixed;dominant-baseline:auto;baseline-shift:baseline;text-anchor:start;white-space:normal;shape-padding:0;clip-rule:nonzero;display:inline;overflow:visible;visibility:visible;opacity:1;isolation:auto;mix-blend-mode:normal;color-interpolation:sRGB;color-interpolation-filters:linearRGB;solid-color:#000000;solid-opacity:1;vector-effect:none;fill:#000000;fill-opacity:1;fill-rule:nonzero;stroke:none;stroke-width:2;stroke-linecap:round;stroke-linejoin:miter;stroke-miterlimit:4;stroke-dasharray:none;stroke-dashoffset:0;stroke-opacity:1;color-rendering:auto;image-rendering:auto;shape-rendering:auto;text-rendering:auto;enable-background:accumulate"
       d="M 55.998047 2.0136719 C 50.732141 1.8091994 45.495579 3.597202 41.494141 7.4609375 L 41.486328 7.4765625 L 41.242188 7.7128906 L 41.220703 7.890625 C 33.838968 15.691494 34.43981 28.569675 42.533203 36.664062 L 66.462891 60.599609 L 66.458984 60.603516 L 91.521484 85.509766 C 99.69898 93.682314 112.6035 94.260488 120.31836 86.550781 L 120.32422 86.542969 L 120.61328 86.255859 L 120.61328 86.107422 C 128.17672 78.348808 127.58746 65.548783 119.54297 57.509766 L 119.53516 57.509766 L 95.396484 33.402344 L 70.666016 8.5253906 C 66.559563 4.418367 61.263957 2.2180309 55.998047 2.0136719 z M 94.011719 34.84375 L 118.125 58.919922 C 125.58731 66.377119 126.05742 78.24209 118.92188 85.126953 L 118.9082 85.132812 L 118.90039 85.140625 C 112.00984 92.017815 100.40496 91.556692 92.9375 84.09375 L 69.265625 60.568359 L 94.011719 34.84375 z M 119.71875 94.146484 C 118.21726 94.144184 116.64999 94.86619 115.27539 96.324219 L 115.29883 96.294922 C 110.02884 101.50655 103.65055 105.17627 96.697266 107.51562 C 95.92971 107.32116 95.093276 107.15152 94.164062 107.01367 L 94.134766 107.00586 L 94.111328 107.00586 C 88.482362 106.45692 83.31534 105.07575 78.417969 103.08203 C 72.195184 99.797578 65.878762 99.070414 59.601562 99.269531 C 53.66497 99.457951 47.763383 100.468 42.003906 100.91992 L 42.003906 96 L 2 96 L 2 98 L 2 124 L 2 126 L 42.003906 126 L 42.003906 118.48828 C 48.38615 121.05185 53.208289 123.15011 62.8125 124.98047 L 62.841797 124.98828 L 62.871094 124.98828 C 81.483861 127.42865 94.390547 125.15344 103.80469 120.95703 C 113.21882 116.76055 119.10663 110.66056 123.73438 105.66992 L 123.80078 105.5957 L 123.86133 105.50781 C 125.45308 102.85406 125.56523 100.0563 124.70898 97.896484 C 123.85274 95.736636 121.97043 94.149886 119.71875 94.146484 z "
       transform="matrix(0.26458334,0,0,0.26458334,0,263.13332)"
       id="path856" />
  </g>
</svg>
