<?xml version="1.0" encoding="iso-8859-1"?>
<!-- Generator: Adobe Illustrator 20.0.0, SVG Export Plug-In . SVG Version: 6.00 Build 0)  -->
<svg version="1.1" id="Layer_1_1_" xmlns="http://www.w3.org/2000/svg" xmlns:xlink="http://www.w3.org/1999/xlink" x="0px" y="0px"
	 viewBox="0 0 64 64" style="enable-background:new 0 0 64 64;" xml:space="preserve">
<path d="M57,10h-5V6c0-2.206-1.794-4-4-4s-4,1.794-4,4v4H20V6c0-2.206-1.794-4-4-4s-4,1.794-4,4v4H7c-2.757,0-5,2.243-5,5v42
	c0,2.757,2.243,5,5,5h50c2.757,0,5-2.243,5-5V15C62,12.243,59.757,10,57,10z M46,6c0-1.103,0.897-2,2-2s2,0.897,2,2v8
	c0,1.103-0.897,2-2,2s-2-0.897-2-2V6z M14,6c0-1.103,0.897-2,2-2s2,0.897,2,2v8c0,1.103-0.897,2-2,2s-2-0.897-2-2V6z M7,12h5v2
	c0,2.206,1.794,4,4,4s4-1.794,4-4v-2h24v2c0,2.206,1.794,4,4,4s4-1.794,4-4v-2h5c1.654,0,3,1.346,3,3v7H4v-7C4,13.346,5.346,12,7,12
	z M57,60H7c-1.654,0-3-1.346-3-3V24h56v33C60,58.654,58.654,60,57,60z"/>
<rect x="31" y="18" width="2" height="2"/>
<rect x="35" y="18" width="2" height="2"/>
<rect x="27" y="18" width="2" height="2"/>
<path d="M44,35H24v-2c0-0.376-0.211-0.72-0.546-0.891c-0.334-0.169-0.736-0.139-1.042,0.083l-11,8C11.153,40.379,11,40.68,11,41
	s0.153,0.621,0.412,0.809l11,8C22.586,49.936,22.793,50,23,50c0.155,0,0.311-0.036,0.454-0.109C23.789,49.72,24,49.376,24,49v-2h20
	c0.553,0,1-0.448,1-1V36C45,35.448,44.553,35,44,35z M43,45H23c-0.553,0-1,0.448-1,1v1.036L13.7,41l8.3-6.036V36
	c0,0.552,0.447,1,1,1h20V45z"/>
<rect x="51" y="35" width="2" height="12"/>
<rect x="47" y="35" width="2" height="12"/>
</svg>
